<?xml version="1.0" encoding="UTF-8" standalone="no"?>
<!DOCTYPE svg PUBLIC "-//W3C//DTD SVG 1.1//EN"
 "http://www.w3.org/Graphics/SVG/1.1/DTD/svg11.dtd">
<!-- Generated by graphviz version 2.47.3 (20210619.1520)
 -->
<!-- Title: dependencies Pages: 1 -->
<svg width="852pt" height="247pt"
 viewBox="0.00 0.00 852.00 246.80" xmlns="http://www.w3.org/2000/svg" xmlns:xlink="http://www.w3.org/1999/xlink">
<g id="graph0" class="graph" transform="scale(1 1) rotate(0) translate(4 242.8)">
<title>dependencies</title>
<polygon fill="white" stroke="transparent" points="-4,4 -4,-242.8 848,-242.8 848,4 -4,4"/>
<text text-anchor="middle" x="422" y="-8.2" font-family="sans-serif" font-size="14.00">dependencies</text>
<g id="clust1" class="cluster">
<title>cluster_PagesModule</title>
<polygon fill="none" stroke="black" stroke-dasharray="1,5" points="8,-32.8 8,-230.8 836,-230.8 836,-32.8 8,-32.8"/>
</g>
<g id="clust7" class="cluster">
<title>cluster_PagesModule_imports</title>
<polygon fill="none" stroke="black" points="558,-40.8 558,-92.8 828,-92.8 828,-40.8 558,-40.8"/>
</g>
<g id="clust2" class="cluster">
<title>cluster_PagesModule_declarations</title>
<polygon fill="none" stroke="black" points="16,-40.8 16,-92.8 550,-92.8 550,-40.8 16,-40.8"/>
</g>
<g id="clust8" class="cluster">
<title>cluster_PagesModule_exports</title>
<polygon fill="none" stroke="black" points="355,-170.8 355,-222.8 491,-222.8 491,-170.8 355,-170.8"/>
</g>
<!-- AllComponent -->
<g id="node1" class="node">
<title>AllComponent</title>
<polygon fill="#ffffb3" stroke="black" points="541.72,-84.8 442.28,-84.8 442.28,-48.8 541.72,-48.8 541.72,-84.8"/>
<text text-anchor="middle" x="492" y="-62.6" font-family="Times,serif" font-size="14.00">AllComponent</text>
</g>
<!-- PagesModule -->
<g id="node5" class="node">
<title>PagesModule</title>
<polygon fill="#8dd3c7" stroke="black" points="469.21,-149.8 466.21,-153.8 445.21,-153.8 442.21,-149.8 376.79,-149.8 376.79,-113.8 469.21,-113.8 469.21,-149.8"/>
<text text-anchor="middle" x="423" y="-127.6" font-family="Times,serif" font-size="14.00">PagesModule</text>
</g>
<!-- AllComponent&#45;&gt;PagesModule -->
<g id="edge1" class="edge">
<title>AllComponent&#45;&gt;PagesModule</title>
<path fill="none" stroke="black" d="M455.75,-84.91C455.75,-84.91 455.75,-103.79 455.75,-103.79"/>
<polygon fill="black" stroke="black" points="452.25,-103.79 455.75,-113.79 459.25,-103.79 452.25,-103.79"/>
</g>
<!-- DropdownComponent -->
<g id="node2" class="node">
<title>DropdownComponent</title>
<polygon fill="#ffffb3" stroke="black" points="424.71,-84.8 283.29,-84.8 283.29,-48.8 424.71,-48.8 424.71,-84.8"/>
<text text-anchor="middle" x="354" y="-62.6" font-family="Times,serif" font-size="14.00">DropdownComponent</text>
</g>
<!-- DropdownComponent&#45;&gt;PagesModule -->
<g id="edge2" class="edge">
<title>DropdownComponent&#45;&gt;PagesModule</title>
<path fill="none" stroke="black" d="M400.75,-84.91C400.75,-84.91 400.75,-103.79 400.75,-103.79"/>
<polygon fill="black" stroke="black" points="397.25,-103.79 400.75,-113.79 404.25,-103.79 397.25,-103.79"/>
</g>
<!-- FavsComponent -->
<g id="node3" class="node">
<title>FavsComponent</title>
<polygon fill="#ffffb3" stroke="black" points="265.77,-84.8 158.23,-84.8 158.23,-48.8 265.77,-48.8 265.77,-84.8"/>
<text text-anchor="middle" x="212" y="-62.6" font-family="Times,serif" font-size="14.00">FavsComponent</text>
</g>
<!-- FavsComponent&#45;&gt;PagesModule -->
<g id="edge3" class="edge">
<title>FavsComponent&#45;&gt;PagesModule</title>
<path fill="none" stroke="black" d="M212,-84.82C212,-102.17 212,-125.8 212,-125.8 212,-125.8 366.7,-125.8 366.7,-125.8"/>
<polygon fill="black" stroke="black" points="366.7,-129.3 376.7,-125.8 366.7,-122.3 366.7,-129.3"/>
</g>
<!-- HomeComponent -->
<g id="node4" class="node">
<title>HomeComponent</title>
<polygon fill="#ffffb3" stroke="black" points="139.55,-84.8 24.45,-84.8 24.45,-48.8 139.55,-48.8 139.55,-84.8"/>
<text text-anchor="middle" x="82" y="-62.6" font-family="Times,serif" font-size="14.00">HomeComponent</text>
</g>
<!-- HomeComponent&#45;&gt;PagesModule -->
<g id="edge4" class="edge">
<title>HomeComponent&#45;&gt;PagesModule</title>
<path fill="none" stroke="black" d="M82,-85.08C82,-106.12 82,-137.8 82,-137.8 82,-137.8 366.66,-137.8 366.66,-137.8"/>
<polygon fill="black" stroke="black" points="366.66,-141.3 376.66,-137.8 366.66,-134.3 366.66,-141.3"/>
</g>
<!-- HomeComponent  -->
<g id="node8" class="node">
<title>HomeComponent </title>
<polygon fill="#fb8072" stroke="black" points="482.54,-214.8 363.46,-214.8 363.46,-178.8 482.54,-178.8 482.54,-214.8"/>
<text text-anchor="middle" x="423" y="-192.6" font-family="Times,serif" font-size="14.00">HomeComponent </text>
</g>
<!-- PagesModule&#45;&gt;HomeComponent  -->
<g id="edge7" class="edge">
<title>PagesModule&#45;&gt;HomeComponent </title>
<path fill="none" stroke="black" stroke-dasharray="5,2" d="M423,-149.91C423,-149.91 423,-168.79 423,-168.79"/>
<polygon fill="black" stroke="black" points="419.5,-168.79 423,-178.79 426.5,-168.79 419.5,-168.79"/>
</g>
<!-- PagesRoutingModule -->
<g id="node6" class="node">
<title>PagesRoutingModule</title>
<polygon fill="#8dd3c7" stroke="black" points="819.82,-84.8 816.82,-88.8 795.82,-88.8 792.82,-84.8 682.18,-84.8 682.18,-48.8 819.82,-48.8 819.82,-84.8"/>
<text text-anchor="middle" x="751" y="-62.6" font-family="Times,serif" font-size="14.00">PagesRoutingModule</text>
</g>
<!-- PagesRoutingModule&#45;&gt;PagesModule -->
<g id="edge5" class="edge">
<title>PagesRoutingModule&#45;&gt;PagesModule</title>
<path fill="none" stroke="black" d="M751,-85.08C751,-106.12 751,-137.8 751,-137.8 751,-137.8 479.3,-137.8 479.3,-137.8"/>
<polygon fill="black" stroke="black" points="479.3,-134.3 469.3,-137.8 479.3,-141.3 479.3,-134.3"/>
</g>
<!-- SharedModule -->
<g id="node7" class="node">
<title>SharedModule</title>
<polygon fill="#8dd3c7" stroke="black" points="664.42,-84.8 661.42,-88.8 640.42,-88.8 637.42,-84.8 565.58,-84.8 565.58,-48.8 664.42,-48.8 664.42,-84.8"/>
<text text-anchor="middle" x="615" y="-62.6" font-family="Times,serif" font-size="14.00">SharedModule</text>
</g>
<!-- SharedModule&#45;&gt;PagesModule -->
<g id="edge6" class="edge">
<title>SharedModule&#45;&gt;PagesModule</title>
<path fill="none" stroke="black" d="M615,-84.82C615,-102.17 615,-125.8 615,-125.8 615,-125.8 479.48,-125.8 479.48,-125.8"/>
<polygon fill="black" stroke="black" points="479.48,-122.3 469.48,-125.8 479.48,-129.3 479.48,-122.3"/>
</g>
</g>
</svg>
