<?xml version="1.0" encoding="UTF-8" standalone="no"?>
<!DOCTYPE svg PUBLIC "-//W3C//DTD SVG 1.1//EN"
 "http://www.w3.org/Graphics/SVG/1.1/DTD/svg11.dtd">
<!-- Generated by graphviz version 2.47.3 (20210619.1520)
 -->
<!-- Title: dependencies Pages: 1 -->
<svg width="582pt" height="247pt"
 viewBox="0.00 0.00 582.00 246.80" xmlns="http://www.w3.org/2000/svg" xmlns:xlink="http://www.w3.org/1999/xlink">
<g id="graph0" class="graph" transform="scale(1 1) rotate(0) translate(4 242.8)">
<title>dependencies</title>
<polygon fill="white" stroke="transparent" points="-4,4 -4,-242.8 578,-242.8 578,4 -4,4"/>
<text text-anchor="middle" x="287" y="-8.2" font-family="sans-serif" font-size="14.00">dependencies</text>
<g id="clust1" class="cluster">
<title>cluster_SharedModule</title>
<polygon fill="none" stroke="black" stroke-dasharray="1,5" points="8,-32.8 8,-230.8 566,-230.8 566,-32.8 8,-32.8"/>
</g>
<g id="clust2" class="cluster">
<title>cluster_SharedModule_declarations</title>
<polygon fill="none" stroke="black" points="16,-40.8 16,-92.8 558,-92.8 558,-40.8 16,-40.8"/>
</g>
<g id="clust8" class="cluster">
<title>cluster_SharedModule_exports</title>
<polygon fill="none" stroke="black" points="118,-170.8 118,-222.8 413,-222.8 413,-170.8 118,-170.8"/>
</g>
<!-- HeaderComponent -->
<g id="node1" class="node">
<title>HeaderComponent</title>
<polygon fill="#ffffb3" stroke="black" points="549.74,-84.8 428.26,-84.8 428.26,-48.8 549.74,-48.8 549.74,-84.8"/>
<text text-anchor="middle" x="489" y="-62.6" font-family="Times,serif" font-size="14.00">HeaderComponent</text>
</g>
<!-- SharedModule -->
<g id="node5" class="node">
<title>SharedModule</title>
<polygon fill="#8dd3c7" stroke="black" points="317.42,-149.8 314.42,-153.8 293.42,-153.8 290.42,-149.8 218.58,-149.8 218.58,-113.8 317.42,-113.8 317.42,-149.8"/>
<text text-anchor="middle" x="268" y="-127.6" font-family="Times,serif" font-size="14.00">SharedModule</text>
</g>
<!-- HeaderComponent&#45;&gt;SharedModule -->
<g id="edge1" class="edge">
<title>HeaderComponent&#45;&gt;SharedModule</title>
<path fill="none" stroke="black" d="M489,-84.91C489,-104.14 489,-131.8 489,-131.8 489,-131.8 327.32,-131.8 327.32,-131.8"/>
<polygon fill="black" stroke="black" points="327.32,-128.3 317.32,-131.8 327.32,-135.3 327.32,-128.3"/>
</g>
<!-- HeadlineComponent -->
<g id="node2" class="node">
<title>HeadlineComponent</title>
<polygon fill="#ffffb3" stroke="black" points="409.86,-84.8 278.14,-84.8 278.14,-48.8 409.86,-48.8 409.86,-84.8"/>
<text text-anchor="middle" x="344" y="-62.6" font-family="Times,serif" font-size="14.00">HeadlineComponent</text>
</g>
<!-- HeadlineComponent&#45;&gt;SharedModule -->
<g id="edge2" class="edge">
<title>HeadlineComponent&#45;&gt;SharedModule</title>
<path fill="none" stroke="black" d="M297.64,-84.91C297.64,-84.91 297.64,-103.79 297.64,-103.79"/>
<polygon fill="black" stroke="black" points="294.14,-103.79 297.64,-113.79 301.14,-103.79 294.14,-103.79"/>
</g>
<!-- SidebarComponent -->
<g id="node3" class="node">
<title>SidebarComponent</title>
<polygon fill="#ffffb3" stroke="black" points="260.1,-84.8 135.9,-84.8 135.9,-48.8 260.1,-48.8 260.1,-84.8"/>
<text text-anchor="middle" x="198" y="-62.6" font-family="Times,serif" font-size="14.00">SidebarComponent</text>
</g>
<!-- SidebarComponent&#45;&gt;SharedModule -->
<g id="edge3" class="edge">
<title>SidebarComponent&#45;&gt;SharedModule</title>
<path fill="none" stroke="black" d="M239.42,-84.91C239.42,-84.91 239.42,-103.79 239.42,-103.79"/>
<polygon fill="black" stroke="black" points="235.92,-103.79 239.42,-113.79 242.92,-103.79 235.92,-103.79"/>
</g>
<!-- TimeAgoPipe -->
<g id="node4" class="node">
<title>TimeAgoPipe</title>
<polygon fill="#ffffb3" stroke="black" points="118.04,-84.8 23.96,-84.8 23.96,-48.8 118.04,-48.8 118.04,-84.8"/>
<text text-anchor="middle" x="71" y="-62.6" font-family="Times,serif" font-size="14.00">TimeAgoPipe</text>
</g>
<!-- TimeAgoPipe&#45;&gt;SharedModule -->
<g id="edge4" class="edge">
<title>TimeAgoPipe&#45;&gt;SharedModule</title>
<path fill="none" stroke="black" d="M71,-84.91C71,-104.14 71,-131.8 71,-131.8 71,-131.8 208.54,-131.8 208.54,-131.8"/>
<polygon fill="black" stroke="black" points="208.54,-135.3 218.54,-131.8 208.54,-128.3 208.54,-135.3"/>
</g>
<!-- HeaderComponent  -->
<g id="node6" class="node">
<title>HeaderComponent </title>
<polygon fill="#fb8072" stroke="black" points="404.74,-214.8 279.26,-214.8 279.26,-178.8 404.74,-178.8 404.74,-214.8"/>
<text text-anchor="middle" x="342" y="-192.6" font-family="Times,serif" font-size="14.00">HeaderComponent </text>
</g>
<!-- SharedModule&#45;&gt;HeaderComponent  -->
<g id="edge5" class="edge">
<title>SharedModule&#45;&gt;HeaderComponent </title>
<path fill="none" stroke="black" stroke-dasharray="5,2" d="M298.29,-149.91C298.29,-149.91 298.29,-168.79 298.29,-168.79"/>
<polygon fill="black" stroke="black" points="294.79,-168.79 298.29,-178.79 301.79,-168.79 294.79,-168.79"/>
</g>
<!-- HeadlineComponent  -->
<g id="node7" class="node">
<title>HeadlineComponent </title>
<polygon fill="#fb8072" stroke="black" points="261.86,-214.8 126.14,-214.8 126.14,-178.8 261.86,-178.8 261.86,-214.8"/>
<text text-anchor="middle" x="194" y="-192.6" font-family="Times,serif" font-size="14.00">HeadlineComponent </text>
</g>
<!-- SharedModule&#45;&gt;HeadlineComponent  -->
<g id="edge6" class="edge">
<title>SharedModule&#45;&gt;HeadlineComponent </title>
<path fill="none" stroke="black" stroke-dasharray="5,2" d="M240.24,-149.91C240.24,-149.91 240.24,-168.79 240.24,-168.79"/>
<polygon fill="black" stroke="black" points="236.74,-168.79 240.24,-178.79 243.74,-168.79 236.74,-168.79"/>
</g>
</g>
</svg>
