<?xml version="1.0" encoding="UTF-8" standalone="no"?>
<!DOCTYPE svg PUBLIC "-//W3C//DTD SVG 1.1//EN"
 "http://www.w3.org/Graphics/SVG/1.1/DTD/svg11.dtd">
<!-- Generated by graphviz version 2.47.3 (20210619.1520)
 -->
<!-- Title: dependencies Pages: 1 -->
<svg width="1540pt" height="391pt"
 viewBox="0.00 0.00 1540.00 390.80" xmlns="http://www.w3.org/2000/svg" xmlns:xlink="http://www.w3.org/1999/xlink">
<g id="graph0" class="graph" transform="scale(1 1) rotate(0) translate(4 386.8)">
<title>dependencies</title>
<polygon fill="white" stroke="transparent" points="-4,4 -4,-386.8 1536,-386.8 1536,4 -4,4"/>
<text text-anchor="middle" x="766" y="-8.2" font-family="sans-serif" font-size="14.00">dependencies</text>
<g id="clust1" class="cluster">
<title>cluster_AppModule</title>
<polygon fill="none" stroke="black" stroke-dasharray="1,5" points="253,-108.8 253,-374.8 660,-374.8 660,-108.8 253,-108.8"/>
</g>
<g id="clust2" class="cluster">
<title>cluster_AppModule_declarations</title>
<polygon fill="none" stroke="black" points="530,-184.8 530,-236.8 652,-236.8 652,-184.8 530,-184.8"/>
</g>
<g id="clust4" class="cluster">
<title>cluster_AppModule_imports</title>
<polygon fill="none" stroke="black" points="261,-116.8 261,-236.8 522,-236.8 522,-116.8 261,-116.8"/>
</g>
<g id="clust6" class="cluster">
<title>cluster_AppModule_bootstrap</title>
<polygon fill="none" stroke="black" points="373,-314.8 373,-366.8 497,-366.8 497,-314.8 373,-314.8"/>
</g>
<g id="clust14" class="cluster">
<title>cluster_PagesModule</title>
<polygon fill="none" stroke="black" stroke-dasharray="1,5" points="668,-108.8 668,-176.8 1524,-176.8 1524,-108.8 668,-108.8"/>
</g>
<g id="clust15" class="cluster">
<title>cluster_PagesModule_declarations</title>
<polygon fill="none" stroke="black" points="982,-116.8 982,-168.8 1516,-168.8 1516,-116.8 982,-116.8"/>
</g>
<g id="clust20" class="cluster">
<title>cluster_PagesModule_imports</title>
<polygon fill="none" stroke="black" points="820,-116.8 820,-168.8 974,-168.8 974,-116.8 820,-116.8"/>
</g>
<g id="clust21" class="cluster">
<title>cluster_PagesModule_exports</title>
<polygon fill="none" stroke="black" points="676,-116.8 676,-168.8 812,-168.8 812,-116.8 676,-116.8"/>
</g>
<g id="clust30" class="cluster">
<title>cluster_SharedModule</title>
<polygon fill="none" stroke="black" stroke-dasharray="1,5" points="8,-32.8 8,-100.8 869,-100.8 869,-32.8 8,-32.8"/>
</g>
<g id="clust31" class="cluster">
<title>cluster_SharedModule_declarations</title>
<polygon fill="none" stroke="black" points="319,-40.8 319,-92.8 861,-92.8 861,-40.8 319,-40.8"/>
</g>
<g id="clust37" class="cluster">
<title>cluster_SharedModule_exports</title>
<polygon fill="none" stroke="black" points="16,-40.8 16,-92.8 311,-92.8 311,-40.8 16,-40.8"/>
</g>
<!-- AppComponent -->
<g id="node1" class="node">
<title>AppComponent</title>
<polygon fill="#ffffb3" stroke="black" points="643.94,-228.8 538.06,-228.8 538.06,-192.8 643.94,-192.8 643.94,-228.8"/>
<text text-anchor="middle" x="591" y="-206.6" font-family="Times,serif" font-size="14.00">AppComponent</text>
</g>
<!-- AppModule -->
<g id="node2" class="node">
<title>AppModule</title>
<polygon fill="#8dd3c7" stroke="black" points="476.66,-293.8 473.66,-297.8 452.66,-297.8 449.66,-293.8 393.34,-293.8 393.34,-257.8 476.66,-257.8 476.66,-293.8"/>
<text text-anchor="middle" x="435" y="-271.6" font-family="Times,serif" font-size="14.00">AppModule</text>
</g>
<!-- AppComponent&#45;&gt;AppModule -->
<g id="edge1" class="edge">
<title>AppComponent&#45;&gt;AppModule</title>
<path fill="none" stroke="black" d="M591,-228.91C591,-248.14 591,-275.8 591,-275.8 591,-275.8 486.81,-275.8 486.81,-275.8"/>
<polygon fill="black" stroke="black" points="486.81,-272.3 476.81,-275.8 486.81,-279.3 486.81,-272.3"/>
</g>
<!-- AppComponent  -->
<g id="node6" class="node">
<title>AppComponent </title>
<polygon fill="#80b1d3" stroke="black" points="489.44,-358.8 380.56,-358.8 380.56,-322.8 489.44,-322.8 489.44,-358.8"/>
<text text-anchor="middle" x="435" y="-336.6" font-family="Times,serif" font-size="14.00">AppComponent </text>
</g>
<!-- AppModule&#45;&gt;AppComponent  -->
<g id="edge5" class="edge">
<title>AppModule&#45;&gt;AppComponent </title>
<path fill="none" stroke="black" stroke-dasharray="1,5" d="M435,-293.91C435,-293.91 435,-312.79 435,-312.79"/>
<polygon fill="black" stroke="black" points="431.5,-312.79 435,-322.79 438.5,-312.79 431.5,-312.79"/>
</g>
<!-- AppRoutingModule -->
<g id="node3" class="node">
<title>AppRoutingModule</title>
<polygon fill="#8dd3c7" stroke="black" points="397.27,-160.8 394.27,-164.8 373.27,-164.8 370.27,-160.8 268.73,-160.8 268.73,-124.8 397.27,-124.8 397.27,-160.8"/>
<text text-anchor="middle" x="333" y="-138.6" font-family="Times,serif" font-size="14.00">AppRoutingModule</text>
</g>
<!-- AppRoutingModule&#45;&gt;AppModule -->
<g id="edge2" class="edge">
<title>AppRoutingModule&#45;&gt;AppModule</title>
<path fill="none" stroke="black" d="M386.85,-161.01C386.85,-197.44 386.85,-275.8 386.85,-275.8 386.85,-275.8 387.48,-275.8 387.48,-275.8"/>
<polygon fill="black" stroke="black" points="383.15,-279.3 393.15,-275.8 383.15,-272.3 383.15,-279.3"/>
</g>
<!-- PagesModule -->
<g id="node4" class="node">
<title>PagesModule</title>
<polygon fill="#8dd3c7" stroke="black" points="514.21,-228.8 511.21,-232.8 490.21,-232.8 487.21,-228.8 421.79,-228.8 421.79,-192.8 514.21,-192.8 514.21,-228.8"/>
<text text-anchor="middle" x="468" y="-206.6" font-family="Times,serif" font-size="14.00">PagesModule</text>
</g>
<!-- PagesModule&#45;&gt;AppModule -->
<g id="edge3" class="edge">
<title>PagesModule&#45;&gt;AppModule</title>
<path fill="none" stroke="black" d="M449.36,-228.91C449.36,-228.91 449.36,-247.79 449.36,-247.79"/>
<polygon fill="black" stroke="black" points="445.86,-247.79 449.36,-257.79 452.86,-247.79 445.86,-247.79"/>
</g>
<!-- HomeComponent  -->
<g id="node12" class="node">
<title>HomeComponent </title>
<polygon fill="#fb8072" stroke="black" points="803.54,-160.8 684.46,-160.8 684.46,-124.8 803.54,-124.8 803.54,-160.8"/>
<text text-anchor="middle" x="744" y="-138.6" font-family="Times,serif" font-size="14.00">HomeComponent </text>
</g>
<!-- PagesModule&#45;&gt;HomeComponent  -->
<g id="edge12" class="edge">
<title>PagesModule&#45;&gt;HomeComponent </title>
<path fill="none" stroke="black" stroke-dasharray="5,2" d="M514.18,-210.8C521.25,-210.8 526.25,-210.8 526.25,-210.8 526.25,-210.8 526.25,-148.8 526.25,-148.8 526.25,-148.8 674.21,-148.8 674.21,-148.8"/>
<polygon fill="black" stroke="black" points="674.21,-152.3 684.21,-148.8 674.21,-145.3 674.21,-152.3"/>
</g>
<!-- SharedModule -->
<g id="node5" class="node">
<title>SharedModule</title>
<polygon fill="#8dd3c7" stroke="black" points="514.42,-160.8 511.42,-164.8 490.42,-164.8 487.42,-160.8 415.58,-160.8 415.58,-124.8 514.42,-124.8 514.42,-160.8"/>
<text text-anchor="middle" x="465" y="-138.6" font-family="Times,serif" font-size="14.00">SharedModule</text>
</g>
<!-- SharedModule&#45;&gt;AppModule -->
<g id="edge4" class="edge">
<title>SharedModule&#45;&gt;AppModule</title>
<path fill="none" stroke="black" d="M415.71,-142.8C410.24,-142.8 406.59,-142.8 406.59,-142.8 406.59,-142.8 406.59,-247.59 406.59,-247.59"/>
<polygon fill="black" stroke="black" points="403.09,-247.59 406.59,-257.59 410.09,-247.59 403.09,-247.59"/>
</g>
<!-- SharedModule&#45;&gt;PagesModule -->
<g id="edge11" class="edge">
<title>SharedModule&#45;&gt;PagesModule</title>
<path fill="none" stroke="black" d="M435.07,-161.02C435.07,-161.02 435.07,-182.53 435.07,-182.53"/>
<polygon fill="black" stroke="black" points="431.57,-182.53 435.07,-192.53 438.57,-182.53 431.57,-182.53"/>
</g>
<!-- HeaderComponent  -->
<g id="node17" class="node">
<title>HeaderComponent </title>
<polygon fill="#fb8072" stroke="black" points="302.74,-84.8 177.26,-84.8 177.26,-48.8 302.74,-48.8 302.74,-84.8"/>
<text text-anchor="middle" x="240" y="-62.6" font-family="Times,serif" font-size="14.00">HeaderComponent </text>
</g>
<!-- SharedModule&#45;&gt;HeaderComponent  -->
<g id="edge17" class="edge">
<title>SharedModule&#45;&gt;HeaderComponent </title>
<path fill="none" stroke="black" stroke-dasharray="5,2" d="M437.36,-124.69C437.36,-114.9 437.36,-104.8 437.36,-104.8 437.36,-104.8 285.62,-104.8 285.62,-104.8 285.62,-104.8 285.62,-94.91 285.62,-94.91"/>
<polygon fill="black" stroke="black" points="289.12,-94.91 285.62,-84.91 282.12,-94.91 289.12,-94.91"/>
</g>
<!-- HeadlineComponent  -->
<g id="node18" class="node">
<title>HeadlineComponent </title>
<polygon fill="#fb8072" stroke="black" points="159.86,-84.8 24.14,-84.8 24.14,-48.8 159.86,-48.8 159.86,-84.8"/>
<text text-anchor="middle" x="92" y="-62.6" font-family="Times,serif" font-size="14.00">HeadlineComponent </text>
</g>
<!-- SharedModule&#45;&gt;HeadlineComponent  -->
<g id="edge18" class="edge">
<title>SharedModule&#45;&gt;HeadlineComponent </title>
<path fill="none" stroke="black" stroke-dasharray="5,2" d="M426.57,-124.59C426.57,-119.25 426.57,-114.8 426.57,-114.8 426.57,-114.8 92,-114.8 92,-114.8 92,-114.8 92,-94.95 92,-94.95"/>
<polygon fill="black" stroke="black" points="95.5,-94.95 92,-84.95 88.5,-94.95 95.5,-94.95"/>
</g>
<!-- AllComponent -->
<g id="node7" class="node">
<title>AllComponent</title>
<polygon fill="#ffffb3" stroke="black" points="1507.72,-160.8 1408.28,-160.8 1408.28,-124.8 1507.72,-124.8 1507.72,-160.8"/>
<text text-anchor="middle" x="1458" y="-138.6" font-family="Times,serif" font-size="14.00">AllComponent</text>
</g>
<!-- AllComponent&#45;&gt;PagesModule -->
<g id="edge6" class="edge">
<title>AllComponent&#45;&gt;PagesModule</title>
<path fill="none" stroke="black" d="M1458,-160.84C1458,-173.36 1458,-187.8 1458,-187.8 1458,-187.8 500.93,-187.8 500.93,-187.8 500.93,-187.8 500.93,-188.29 500.93,-188.29"/>
<polygon fill="black" stroke="black" points="497.43,-182.68 500.93,-192.68 504.43,-182.68 497.43,-182.68"/>
</g>
<!-- DropdownComponent -->
<g id="node8" class="node">
<title>DropdownComponent</title>
<polygon fill="#ffffb3" stroke="black" points="1390.71,-160.8 1249.29,-160.8 1249.29,-124.8 1390.71,-124.8 1390.71,-160.8"/>
<text text-anchor="middle" x="1320" y="-138.6" font-family="Times,serif" font-size="14.00">DropdownComponent</text>
</g>
<!-- DropdownComponent&#45;&gt;PagesModule -->
<g id="edge7" class="edge">
<title>DropdownComponent&#45;&gt;PagesModule</title>
<path fill="none" stroke="black" d="M1320,-160.93C1320,-171.51 1320,-182.8 1320,-182.8 1320,-182.8 487.76,-182.8 487.76,-182.8 487.76,-182.8 487.76,-183.78 487.76,-183.78"/>
<polygon fill="black" stroke="black" points="484.26,-182.59 487.76,-192.59 491.26,-182.59 484.26,-182.59"/>
</g>
<!-- FavsComponent -->
<g id="node9" class="node">
<title>FavsComponent</title>
<polygon fill="#ffffb3" stroke="black" points="1231.77,-160.8 1124.23,-160.8 1124.23,-124.8 1231.77,-124.8 1231.77,-160.8"/>
<text text-anchor="middle" x="1178" y="-138.6" font-family="Times,serif" font-size="14.00">FavsComponent</text>
</g>
<!-- FavsComponent&#45;&gt;PagesModule -->
<g id="edge8" class="edge">
<title>FavsComponent&#45;&gt;PagesModule</title>
<path fill="none" stroke="black" d="M1178,-160.99C1178,-169.08 1178,-176.8 1178,-176.8 1178,-176.8 474.59,-176.8 474.59,-176.8 474.59,-176.8 474.59,-182.61 474.59,-182.61"/>
<polygon fill="black" stroke="black" points="471.09,-182.61 474.59,-192.61 478.09,-182.61 471.09,-182.61"/>
</g>
<!-- HomeComponent -->
<g id="node10" class="node">
<title>HomeComponent</title>
<polygon fill="#ffffb3" stroke="black" points="1105.55,-160.8 990.45,-160.8 990.45,-124.8 1105.55,-124.8 1105.55,-160.8"/>
<text text-anchor="middle" x="1048" y="-138.6" font-family="Times,serif" font-size="14.00">HomeComponent</text>
</g>
<!-- HomeComponent&#45;&gt;PagesModule -->
<g id="edge9" class="edge">
<title>HomeComponent&#45;&gt;PagesModule</title>
<path fill="none" stroke="black" d="M1048,-161C1048,-166.83 1048,-171.8 1048,-171.8 1048,-171.8 461.41,-171.8 461.41,-171.8 461.41,-171.8 461.41,-182.67 461.41,-182.67"/>
<polygon fill="black" stroke="black" points="457.91,-182.67 461.41,-192.67 464.91,-182.67 457.91,-182.67"/>
</g>
<!-- PagesRoutingModule -->
<g id="node11" class="node">
<title>PagesRoutingModule</title>
<polygon fill="#8dd3c7" stroke="black" points="965.82,-160.8 962.82,-164.8 941.82,-164.8 938.82,-160.8 828.18,-160.8 828.18,-124.8 965.82,-124.8 965.82,-160.8"/>
<text text-anchor="middle" x="897" y="-138.6" font-family="Times,serif" font-size="14.00">PagesRoutingModule</text>
</g>
<!-- PagesRoutingModule&#45;&gt;PagesModule -->
<g id="edge10" class="edge">
<title>PagesRoutingModule&#45;&gt;PagesModule</title>
<path fill="none" stroke="black" d="M897,-160.99C897,-164.34 897,-166.8 897,-166.8 897,-166.8 448.24,-166.8 448.24,-166.8 448.24,-166.8 448.24,-182.65 448.24,-182.65"/>
<polygon fill="black" stroke="black" points="444.74,-182.65 448.24,-192.65 451.74,-182.65 444.74,-182.65"/>
</g>
<!-- HeaderComponent -->
<g id="node13" class="node">
<title>HeaderComponent</title>
<polygon fill="#ffffb3" stroke="black" points="598.74,-84.8 477.26,-84.8 477.26,-48.8 598.74,-48.8 598.74,-84.8"/>
<text text-anchor="middle" x="538" y="-62.6" font-family="Times,serif" font-size="14.00">HeaderComponent</text>
</g>
<!-- HeaderComponent&#45;&gt;SharedModule -->
<g id="edge13" class="edge">
<title>HeaderComponent&#45;&gt;SharedModule</title>
<path fill="none" stroke="black" d="M489.49,-84.81C489.49,-84.81 489.49,-114.65 489.49,-114.65"/>
<polygon fill="black" stroke="black" points="485.99,-114.65 489.49,-124.65 492.99,-114.65 485.99,-114.65"/>
</g>
<!-- HeadlineComponent -->
<g id="node14" class="node">
<title>HeadlineComponent</title>
<polygon fill="#ffffb3" stroke="black" points="458.86,-84.8 327.14,-84.8 327.14,-48.8 458.86,-48.8 458.86,-84.8"/>
<text text-anchor="middle" x="393" y="-62.6" font-family="Times,serif" font-size="14.00">HeadlineComponent</text>
</g>
<!-- HeadlineComponent&#45;&gt;SharedModule -->
<g id="edge14" class="edge">
<title>HeadlineComponent&#45;&gt;SharedModule</title>
<path fill="none" stroke="black" d="M448.15,-84.81C448.15,-84.81 448.15,-114.65 448.15,-114.65"/>
<polygon fill="black" stroke="black" points="444.65,-114.65 448.15,-124.65 451.65,-114.65 444.65,-114.65"/>
</g>
<!-- SidebarComponent -->
<g id="node15" class="node">
<title>SidebarComponent</title>
<polygon fill="#ffffb3" stroke="black" points="853.1,-84.8 728.9,-84.8 728.9,-48.8 853.1,-48.8 853.1,-84.8"/>
<text text-anchor="middle" x="791" y="-62.6" font-family="Times,serif" font-size="14.00">SidebarComponent</text>
</g>
<!-- SidebarComponent&#45;&gt;SharedModule -->
<g id="edge15" class="edge">
<title>SidebarComponent&#45;&gt;SharedModule</title>
<path fill="none" stroke="black" d="M766.24,-85.01C766.24,-90.35 766.24,-94.8 766.24,-94.8 766.24,-94.8 501.85,-94.8 501.85,-94.8 501.85,-94.8 501.85,-114.65 501.85,-114.65"/>
<polygon fill="black" stroke="black" points="498.35,-114.65 501.85,-124.65 505.35,-114.65 498.35,-114.65"/>
</g>
<!-- TimeAgoPipe -->
<g id="node16" class="node">
<title>TimeAgoPipe</title>
<polygon fill="#ffffb3" stroke="black" points="711.04,-84.8 616.96,-84.8 616.96,-48.8 711.04,-48.8 711.04,-84.8"/>
<text text-anchor="middle" x="664" y="-62.6" font-family="Times,serif" font-size="14.00">TimeAgoPipe</text>
</g>
<!-- TimeAgoPipe&#45;&gt;SharedModule -->
<g id="edge16" class="edge">
<title>TimeAgoPipe&#45;&gt;SharedModule</title>
<path fill="none" stroke="black" d="M630.22,-84.83C630.22,-105.57 630.22,-136.8 630.22,-136.8 630.22,-136.8 524.57,-136.8 524.57,-136.8"/>
<polygon fill="black" stroke="black" points="524.57,-133.3 514.57,-136.8 524.57,-140.3 524.57,-133.3"/>
</g>
</g>
</svg>
