<?xml version="1.0" encoding="UTF-8" standalone="no"?>
<!DOCTYPE svg PUBLIC "-//W3C//DTD SVG 1.1//EN"
 "http://www.w3.org/Graphics/SVG/1.1/DTD/svg11.dtd">
<!-- Generated by graphviz version 2.47.3 (20210619.1520)
 -->
<!-- Title: dependencies Pages: 1 -->
<svg width="540pt" height="247pt"
 viewBox="0.00 0.00 540.00 246.80" xmlns="http://www.w3.org/2000/svg" xmlns:xlink="http://www.w3.org/1999/xlink">
<g id="graph0" class="graph" transform="scale(1 1) rotate(0) translate(4 242.8)">
<title>dependencies</title>
<polygon fill="white" stroke="transparent" points="-4,4 -4,-242.8 536,-242.8 536,4 -4,4"/>
<text text-anchor="middle" x="266" y="-8.2" font-family="sans-serif" font-size="14.00">dependencies</text>
<g id="clust1" class="cluster">
<title>cluster_AppModule</title>
<polygon fill="none" stroke="black" stroke-dasharray="1,5" points="8,-32.8 8,-230.8 524,-230.8 524,-32.8 8,-32.8"/>
</g>
<g id="clust4" class="cluster">
<title>cluster_AppModule_imports</title>
<polygon fill="none" stroke="black" points="146,-40.8 146,-92.8 516,-92.8 516,-40.8 146,-40.8"/>
</g>
<g id="clust6" class="cluster">
<title>cluster_AppModule_bootstrap</title>
<polygon fill="none" stroke="black" points="197,-170.8 197,-222.8 321,-222.8 321,-170.8 197,-170.8"/>
</g>
<g id="clust2" class="cluster">
<title>cluster_AppModule_declarations</title>
<polygon fill="none" stroke="black" points="16,-40.8 16,-92.8 138,-92.8 138,-40.8 16,-40.8"/>
</g>
<!-- AppComponent -->
<g id="node1" class="node">
<title>AppComponent</title>
<polygon fill="#ffffb3" stroke="black" points="129.94,-84.8 24.06,-84.8 24.06,-48.8 129.94,-48.8 129.94,-84.8"/>
<text text-anchor="middle" x="77" y="-62.6" font-family="Times,serif" font-size="14.00">AppComponent</text>
</g>
<!-- AppModule -->
<g id="node2" class="node">
<title>AppModule</title>
<polygon fill="#8dd3c7" stroke="black" points="300.66,-149.8 297.66,-153.8 276.66,-153.8 273.66,-149.8 217.34,-149.8 217.34,-113.8 300.66,-113.8 300.66,-149.8"/>
<text text-anchor="middle" x="259" y="-127.6" font-family="Times,serif" font-size="14.00">AppModule</text>
</g>
<!-- AppComponent&#45;&gt;AppModule -->
<g id="edge1" class="edge">
<title>AppComponent&#45;&gt;AppModule</title>
<path fill="none" stroke="black" d="M77,-84.91C77,-104.14 77,-131.8 77,-131.8 77,-131.8 207.25,-131.8 207.25,-131.8"/>
<polygon fill="black" stroke="black" points="207.25,-135.3 217.25,-131.8 207.25,-128.3 207.25,-135.3"/>
</g>
<!-- AppComponent  -->
<g id="node6" class="node">
<title>AppComponent </title>
<polygon fill="#80b1d3" stroke="black" points="313.44,-214.8 204.56,-214.8 204.56,-178.8 313.44,-178.8 313.44,-214.8"/>
<text text-anchor="middle" x="259" y="-192.6" font-family="Times,serif" font-size="14.00">AppComponent </text>
</g>
<!-- AppModule&#45;&gt;AppComponent  -->
<g id="edge5" class="edge">
<title>AppModule&#45;&gt;AppComponent </title>
<path fill="none" stroke="black" stroke-dasharray="1,5" d="M259,-149.91C259,-149.91 259,-168.79 259,-168.79"/>
<polygon fill="black" stroke="black" points="255.5,-168.79 259,-178.79 262.5,-168.79 255.5,-168.79"/>
</g>
<!-- AppRoutingModule -->
<g id="node3" class="node">
<title>AppRoutingModule</title>
<polygon fill="#8dd3c7" stroke="black" points="508.27,-84.8 505.27,-88.8 484.27,-88.8 481.27,-84.8 379.73,-84.8 379.73,-48.8 508.27,-48.8 508.27,-84.8"/>
<text text-anchor="middle" x="444" y="-62.6" font-family="Times,serif" font-size="14.00">AppRoutingModule</text>
</g>
<!-- AppRoutingModule&#45;&gt;AppModule -->
<g id="edge2" class="edge">
<title>AppRoutingModule&#45;&gt;AppModule</title>
<path fill="none" stroke="black" d="M444,-84.91C444,-104.14 444,-131.8 444,-131.8 444,-131.8 310.98,-131.8 310.98,-131.8"/>
<polygon fill="black" stroke="black" points="310.98,-128.3 300.98,-131.8 310.98,-135.3 310.98,-128.3"/>
</g>
<!-- PagesModule -->
<g id="node4" class="node">
<title>PagesModule</title>
<polygon fill="#8dd3c7" stroke="black" points="362.21,-84.8 359.21,-88.8 338.21,-88.8 335.21,-84.8 269.79,-84.8 269.79,-48.8 362.21,-48.8 362.21,-84.8"/>
<text text-anchor="middle" x="316" y="-62.6" font-family="Times,serif" font-size="14.00">PagesModule</text>
</g>
<!-- PagesModule&#45;&gt;AppModule -->
<g id="edge3" class="edge">
<title>PagesModule&#45;&gt;AppModule</title>
<path fill="none" stroke="black" d="M285.36,-84.91C285.36,-84.91 285.36,-103.79 285.36,-103.79"/>
<polygon fill="black" stroke="black" points="281.86,-103.79 285.36,-113.79 288.86,-103.79 281.86,-103.79"/>
</g>
<!-- SharedModule -->
<g id="node5" class="node">
<title>SharedModule</title>
<polygon fill="#8dd3c7" stroke="black" points="252.42,-84.8 249.42,-88.8 228.42,-88.8 225.42,-84.8 153.58,-84.8 153.58,-48.8 252.42,-48.8 252.42,-84.8"/>
<text text-anchor="middle" x="203" y="-62.6" font-family="Times,serif" font-size="14.00">SharedModule</text>
</g>
<!-- SharedModule&#45;&gt;AppModule -->
<g id="edge4" class="edge">
<title>SharedModule&#45;&gt;AppModule</title>
<path fill="none" stroke="black" d="M234.69,-84.91C234.69,-84.91 234.69,-103.79 234.69,-103.79"/>
<polygon fill="black" stroke="black" points="231.19,-103.79 234.69,-113.79 238.19,-103.79 231.19,-103.79"/>
</g>
</g>
</svg>
